<svg xmlns="http://www.w3.org/2000/svg" xmlns:xlink="http://www.w3.org/1999/xlink"><defs><style>
    .sprite-symbol-usage {display: none;}
    .sprite-symbol-usage:target {display: inline;}
  </style><symbol viewBox="0 0 52 52" id="delete"><path d="M45.5 10H33V6c0-2.2-1.8-4-4-4h-6c-2.2 0-4 1.8-4 4v4H6.5c-.8 0-1.5.7-1.5 1.5v3c0 .8.7 1.5 1.5 1.5h39c.8 0 1.5-.7 1.5-1.5v-3c0-.8-.7-1.5-1.5-1.5zM23 7c0-.6.4-1 1-1h4c.6 0 1 .4 1 1v3h-6V7zm18.5 13h-31c-.8 0-1.5.7-1.5 1.5V45c0 2.8 2.2 5 5 5h24c2.8 0 5-2.2 5-5V21.5c0-.8-.7-1.5-1.5-1.5zM23 42c0 .6-.4 1-1 1h-2c-.6 0-1-.4-1-1V28c0-.6.4-1 1-1h2c.6 0 1 .4 1 1v14zm10 0c0 .6-.4 1-1 1h-2c-.6 0-1-.4-1-1V28c0-.6.4-1 1-1h2c.6 0 1 .4 1 1v14z" /></symbol><symbol viewBox="0 0 52 52" id="edit"><path d="M9.5 33.4l8.9 8.9c.4.4 1 .4 1.4 0L42 20c.4-.4.4-1 0-1.4l-8.8-8.8c-.4-.4-1-.4-1.4 0L9.5 32.1c-.4.4-.4 1 0 1.3zM36.1 5.7c-.4.4-.4 1 0 1.4l8.8 8.8c.4.4 1 .4 1.4 0l2.5-2.5c1.6-1.5 1.6-3.9 0-5.5l-4.7-4.7c-1.6-1.6-4.1-1.6-5.7 0l-2.3 2.5zm-34 42.5c-.2 1 .7 1.9 1.7 1.7l10.9-2.6c.4-.1.7-.3.9-.5l.2-.2c.2-.2.3-.9-.1-1.3l-9-9c-.4-.4-1.1-.3-1.3-.1l-.2.2c-.3.3-.4.6-.5.9L2.1 48.2z" /></symbol></defs><use id="delete-usage" xlink:href="#delete" class="sprite-symbol-usage" /><use id="edit-usage" xlink:href="#edit" class="sprite-symbol-usage" /></svg>